<svg width="137" height="166" viewBox="0 0 137 166" fill="none" xmlns="http://www.w3.org/2000/svg">
<g id="Group 21">
<g id="Group 38">
<g id="Group 37">
<ellipse id="Ellipse 9" cx="104.876" cy="12.5899" rx="12.5899" ry="12.5899" fill="#E00501"/>
<path id="Union" d="M92.286 30.3086C82.2425 30.3086 74.1006 38.4505 74.1006 48.494V91.3929C74.1006 94.4833 76.6058 96.9884 79.6961 96.9884C82.7864 96.9884 85.2916 94.4833 85.2916 91.3929V46.2612C85.2916 45.3054 86.0665 44.5305 87.0223 44.5305C87.8975 44.5305 88.635 45.1839 88.7404 46.0527L91.2833 67.0034C91.6385 69.1345 91.6385 71.3096 91.2833 73.4407C89.468 84.3325 88.5557 90.8804 88.5557 101.923V159.938H88.5604C88.6966 163.307 91.7739 166 95.55 166C99.3262 166 102.403 163.307 102.54 159.938H102.544V89.9941C102.544 88.7064 103.588 87.6626 104.876 87.6626C106.164 87.6626 107.207 88.7064 107.207 89.9941V159.938H107.212C107.353 163.307 110.533 166 114.435 166C118.337 166 121.517 163.307 121.658 159.938H121.662V101.923C121.662 90.8804 120.75 84.3325 118.935 73.4407C118.58 71.3096 118.58 69.1345 118.935 67.0034L121.478 46.0527C121.583 45.1839 122.321 44.5305 123.196 44.5305C124.152 44.5305 124.926 45.3054 124.926 46.2612V91.3929C124.926 94.4833 127.432 96.9884 130.522 96.9884C133.612 96.9884 136.118 94.4833 136.118 91.3929V48.494C136.118 38.4505 127.976 30.3086 117.932 30.3086H92.286Z" fill="#E00501"/>
</g>
<path id="Vector 15 (Stroke)" fill-rule="evenodd" clip-rule="evenodd" d="M24.3234 40.8867C26.1299 40.8867 27.5943 42.3512 27.5943 44.1577L27.5943 92.6846L42.8266 77.4523C44.104 76.175 46.1751 76.175 47.4524 77.4523C48.7298 78.7297 48.7298 80.8008 47.4524 82.0781L26.6363 102.894C25.3589 104.172 23.2879 104.172 22.0105 102.894L1.19436 82.0781C-0.0830191 80.8008 -0.083019 78.7297 1.19436 77.4523C2.47174 76.175 4.54279 76.175 5.82017 77.4523L21.0525 92.6846L21.0525 44.1577C21.0525 42.3512 22.5169 40.8867 24.3234 40.8867Z" fill="white"/>
</g>
</g>
</svg>
