<svg width="152" height="152" viewBox="0 0 152 152" fill="none" xmlns="http://www.w3.org/2000/svg">
<g id="Group 44">
<circle id="Ellipse 10" cx="76" cy="76" r="74.5" stroke="#727274" stroke-width="3"/>
<path id="Vector 17" d="M42 73.5C40.6193 73.5 39.5 74.6193 39.5 76C39.5 77.3807 40.6193 78.5 42 78.5L42 73.5ZM111.768 77.7678C112.744 76.7915 112.744 75.2085 111.768 74.2322L95.8579 58.3223C94.8816 57.346 93.2986 57.346 92.3223 58.3223C91.346 59.2986 91.346 60.8815 92.3223 61.8579L106.464 76L92.3223 90.1421C91.346 91.1184 91.346 92.7014 92.3223 93.6777C93.2986 94.654 94.8816 94.654 95.8579 93.6777L111.768 77.7678ZM42 78.5L110 78.5L110 73.5L42 73.5L42 78.5Z" fill="white"/>
</g>
</svg>
